<svg version="1.0" xmlns="http://www.w3.org/2000/svg" preserveAspectRatio="xMidYMid meet" viewBox="148.6 225.02 278.4 49.65">

<g transform="translate(0.000000,500.000000) scale(0.100000,-0.100000)" fill="#000000" stroke="none">
<path d="M1700 2736 c-14 -8 -54 -21 -90 -30 -118 -30 -136 -65 -118 -233 15 -142 28 -163 121 -192 93 -28 140 -34 186 -21 42 11 101 63 133 118 l17 29 -24 -5 c-14 -2 -25 -9 -25 -15 0 -6 -3 -8 -6 -4 -8 7 25 96 43 118 7 9 10 19 6 22 -3 4 -1 7 6 7 32 0 -49 153 -103 195 -37 28 -104 33 -146 11z m-76 -78 c-3 -4 -13 -8 -22 -8 -13 0 -14 -2 -3 -9 9 -6 10 -11 2 -15 -6 -4 -11 -13 -11 -21 0 -11 12 -8 53 10 46 21 87 29 123 26 7 -1 37 -30 67 -66 l56 -66 -56 -82 c-30 -45 -56 -83 -57 -84 -1 -1 -36 11 -78 27 -42 16 -90 31 -107 32 -17 1 -31 2 -31 3 19 47 29 90 30 128 0 40 -3 47 -20 47 -28 0 -26 35 3 64 21 21 62 33 51 14z"/>
<path d="M2104 2595 c-51 -35 -55 -125 -9 -171 26 -26 90 -33 126 -14 36 20 22 32 -28 26 -52 -7 -64 -2 -82 31 -17 33 -13 71 10 94 18 18 29 20 65 15 47 -6 66 7 35 23 -28 16 -93 13 -117 -4z"/>
<path d="M2272 2508 c2 -84 6 -103 18 -103 10 0 16 13 18 43 l3 42 55 0 54 0 0 -46 c0 -38 3 -45 18 -42 15 3 17 16 17 103 0 87 -2 100 -17 103 -15 3 -18 -4 -18 -42 l0 -46 -55 0 -55 0 0 45 c0 39 -3 45 -20 45 -20 0 -21 -5 -18 -102z"/>
<path d="M2532 2513 c-23 -54 -42 -101 -42 -105 0 -18 28 -6 38 17 10 22 18 25 66 25 49 0 54 -2 60 -25 7 -27 36 -35 36 -10 0 8 -19 55 -41 105 -28 60 -47 90 -58 90 -11 0 -30 -31 -59 -97z m68 43 c0 -2 7 -20 15 -40 l15 -36 -39 0 -40 0 17 40 c9 22 20 40 25 40 4 0 7 -2 7 -4z"/>
<path d="M2730 2505 c0 -96 2 -106 18 -103 15 3 17 16 17 103 0 87 -2 100 -17 103 -16 3 -18 -7 -18 -103z"/>
<path d="M2810 2504 c0 -95 2 -105 18 -102 14 3 18 16 20 72 l3 68 56 -71 c30 -40 60 -70 67 -68 7 2 12 41 14 106 2 94 1 102 -15 99 -15 -3 -19 -15 -21 -71 l-3 -68 -55 71 c-77 98 -84 95 -84 -36z"/>
<path d="M3040 2505 c0 -85 3 -105 15 -105 11 0 15 16 17 68 l3 67 29 -53 c16 -29 34 -51 40 -49 6 2 22 24 36 50 14 26 28 47 33 47 4 0 7 -29 7 -65 0 -51 3 -65 15 -65 12 0 15 18 15 106 0 95 -2 105 -17 102 -10 -2 -33 -32 -52 -67 -38 -73 -39 -73 -87 22 -41 79 -54 64 -54 -58z"/>
<path d="M3325 2514 c-25 -53 -45 -100 -45 -105 0 -20 31 -7 42 16 10 22 17 25 63 25 46 0 53 -3 63 -25 11 -25 27 -32 35 -17 9 14 -79 197 -96 200 -13 3 -28 -21 -62 -94z m94 -26 c1 -5 -15 -8 -34 -8 -19 0 -35 2 -35 5 0 2 8 24 17 47 l17 42 17 -40 c10 -21 18 -42 18 -46z"/>
<path d="M3524 2597 c-3 -8 -4 -54 -2 -103 2 -71 6 -89 18 -89 10 0 16 13 18 43 5 62 37 53 93 -29 24 -35 43 -16 23 24 -9 18 -21 35 -27 38 -5 4 0 12 12 18 27 15 29 71 3 94 -23 21 -130 24 -138 4z m120 -40 c14 -23 -15 -47 -56 -47 -25 0 -28 3 -28 36 0 34 1 35 36 32 22 -2 41 -10 48 -21z"/>
<path d="M3730 2505 c0 -87 3 -105 15 -105 11 0 15 12 15 45 0 25 4 45 8 45 4 0 28 -20 52 -45 41 -42 70 -57 70 -36 0 5 -18 29 -40 53 -22 23 -40 45 -40 49 0 3 16 20 35 39 35 34 45 60 23 60 -7 0 -34 -21 -60 -47 l-48 -47 0 47 c0 35 -4 47 -15 47 -12 0 -15 -18 -15 -105z"/>
<path d="M3930 2505 l0 -106 68 3 c79 4 90 22 15 26 -51 3 -53 4 -53 32 0 27 3 29 47 32 66 4 70 28 4 28 -50 0 -51 1 -51 29 0 29 2 30 52 33 30 2 53 8 56 16 3 9 -15 12 -67 12 l-71 0 0 -105z"/>
<path d="M4087 2604 c-13 -13 5 -24 39 -24 l34 0 0 -90 c0 -73 3 -90 15 -90 12 0 15 17 15 90 l0 90 40 0 c29 0 40 4 40 15 0 12 -16 15 -88 15 -49 0 -92 -3 -95 -6z"/>
</g>
</svg>